/* XPM */
// This file is part of Synecdoche.
// http://synecdoche.googlecode.com/
// Copyright (C) 2005 University of California
//
// Synecdoche is free software: you can redistribute it and/or modify
// it under the terms of the GNU Lesser General Public License as published
// by the Free Software Foundation, either version 3 of the License, or
// (at your option) any later version.
//
// Synecdoche is distributed in the hope that it will be useful,
// but WITHOUT ANY WARRANTY; without even the implied warranty of
// MERCHANTABILITY or FITNESS FOR A PARTICULAR PURPOSE.
// See the GNU Lesser General Public License for more details.
//
// You should have received a copy of the GNU Lesser General Public
// License with Synecdoche.  If not, see <http://www.gnu.org/licenses/>.

#ifndef PROJECT_IMAGE_XPM
#define PROJECT_IMAGE_XPM
static const char * project_image_xpm[] = {
"40 40 256 2",
"  	c #5E66B6",
". 	c #B2660C",
"+ 	c #C36309",
"@ 	c #6C800A",
"# 	c #8E7813",
"$ 	c #AB700F",
"% 	c #987615",
"& 	c #827D12",
"* 	c #957816",
"= 	c #8C7B15",
"- 	c #887D14",
"; 	c #A57610",
"> 	c #578D13",
", 	c #A67712",
"' 	c #C46F12",
") 	c #A87813",
"! 	c #788616",
"~ 	c #A7781E",
"{ 	c #CC7009",
"] 	c #708A17",
"^ 	c #AE7817",
"/ 	c #B0790B",
"( 	c #AA7A16",
"_ 	c #B5780E",
": 	c #CA7309",
"< 	c #62911A",
"[ 	c #CA7418",
"} 	c #BC7913",
"| 	c #19A928",
"1 	c #C67722",
"2 	c #5C9814",
"3 	c #40A018",
"4 	c #21AA1F",
"5 	c #CA791B",
"6 	c #B88016",
"7 	c #13B025",
"8 	c #C37B32",
"9 	c #CB7A26",
"0 	c #D27A15",
"a 	c #C57C2C",
"b 	c #D17A1F",
"c 	c #18B227",
"d 	c #CC7C2F",
"e 	c #D67D0B",
"f 	c #C27F34",
"g 	c #C97F2F",
"h 	c #C87F36",
"i 	c #28B130",
"j 	c #C08713",
"k 	c #31AE37",
"l 	c #BE8343",
"m 	c #1FB52A",
"n 	c #D4821B",
"o 	c #61A23A",
"p 	c #3BAD3F",
"q 	c #27B622",
"r 	c #4CAB25",
"s 	c #DA8514",
"t 	c #34B443",
"u 	c #B28B69",
"v 	c #1DBE29",
"w 	c #39B723",
"x 	c #3AB53D",
"y 	c #CA8F1F",
"z 	c #B88E67",
"A 	c #DC8D0C",
"B 	c #CF8C4E",
"C 	c #CB8E4E",
"D 	c #A59489",
"E 	c #CF9324",
"F 	c #44B850",
"G 	c #47B848",
"H 	c #E09013",
"I 	c #29C430",
"J 	c #DF901F",
"K 	c #38C12E",
"L 	c #1ACA34",
"M 	c #4DB857",
"N 	c #55B656",
"O 	c #CE935E",
"P 	c #D39728",
"Q 	c #48BC53",
"R 	c #C9955E",
"S 	c #E09618",
"T 	c #52BB53",
"U 	c #51BC5B",
"V 	c #BB9A7C",
"W 	c #2FCA3F",
"X 	c #B39E88",
"Y 	c #E79B1F",
"Z 	c #B6A18B",
"` 	c #2CD23D",
" .	c #C0A081",
"..	c #98A4D8",
"+.	c #E49F2B",
"@.	c #AFA498",
"#.	c #E8A117",
"$.	c #69C074",
"%.	c #40D33F",
"&.	c #2ADB3C",
"*.	c #EDA51D",
"=.	c #1FE036",
"-.	c #04EB1B",
";.	c #B8A9A4",
">.	c #00EC2C",
",.	c #3DDA3C",
"'.	c #26E239",
").	c #19E834",
"!.	c #DCA87C",
"~.	c #E7AD2B",
"{.	c #34E041",
"].	c #39E038",
"^.	c #EDAC2D",
"/.	c #ECAC36",
"(.	c #99BC99",
"_.	c #2CE63D",
":.	c #AFB4B6",
"<.	c #7DC88A",
"[.	c #2BE848",
"}.	c #30E83F",
"|.	c #AEB6BE",
"1.	c #36E835",
"2.	c #2CEC2E",
"3.	c #28ED3A",
"4.	c #ECB243",
"5.	c #BEB6AF",
"6.	c #2FEE2F",
"7.	c #F3B621",
"8.	c #A6C0AB",
"9.	c #F2B636",
"0.	c #8DCB95",
"a.	c #F5B82F",
"b.	c #3BEE45",
"c.	c #A3C5AE",
"d.	c #B5BEC6",
"e.	c #FABB1A",
"f.	c #94CD9F",
"g.	c #F9BB28",
"h.	c #DCB993",
"i.	c #B9BFC1",
"j.	c #DBB999",
"k.	c #FFBF00",
"l.	c #C3BEBC",
"m.	c #BBC0C2",
"n.	c #F6BE29",
"o.	c #FFC000",
"p.	c #F5BE33",
"q.	c #B8C1C9",
"r.	c #C7BFB8",
"s.	c #FFC100",
"t.	c #DCBCA2",
"u.	c #FEC300",
"v.	c #BBC3CC",
"w.	c #FFC214",
"x.	c #FDC313",
"y.	c #FCC323",
"z.	c #B0CBB5",
"A.	c #FFC515",
"B.	c #ABCEB6",
"C.	c #BEC6CF",
"D.	c #B5CBBC",
"E.	c #FFC617",
"F.	c #FFC719",
"G.	c #FFC628",
"H.	c #BDCBBF",
"I.	c #FDCA29",
"J.	c #C3CBD3",
"K.	c #FECB2A",
"L.	c #FFCC2C",
"M.	c #FFCD37",
"N.	c #C3CFDD",
"O.	c #BAD5BF",
"P.	c #FFCE42",
"Q.	c #C8D0D9",
"R.	c #CAD2DB",
"S.	c #C7D3E1",
"T.	c #FDD24D",
"U.	c #CBD3DC",
"V.	c #CFD4D6",
"W.	c #CCD6D1",
"X.	c #BFDDCD",
"Y.	c #CED7DF",
"Z.	c #DED5CE",
"`.	c #D2D8DA",
" +	c #C2E0D0",
".+	c #BCE0E9",
"++	c #CFDBE9",
"@+	c #D6DBDD",
"#+	c #BDE2EA",
"$+	c #D4DCE5",
"%+	c #BEE3EC",
"&+	c #C5E1EC",
"*+	c #C9E2E7",
"=+	c #C3E4E7",
"-+	c #C4E5E8",
";+	c #E6DDD6",
">+	c #D4E0EE",
",+	c #D7E0E8",
"'+	c #DBE0E2",
")+	c #D9E4D2",
"!+	c #DAE3EB",
"~+	c #D8E4F2",
"{+	c #D4E8F5",
"]+	c #E1E6E9",
"^+	c #DBE8E9",
"/+	c #E4E6E3",
"(+	c #D5E9F6",
"_+	c #EDE5DE",
":+	c #DCE8F6",
"<+	c #DFE8F0",
"[+	c #D9EAF1",
"}+	c #D6EBF7",
"|+	c #DBEBF2",
"1+	c #DEEAF9",
"2+	c #E1EAF2",
"3+	c #DCECF3",
"4+	c #E6EBED",
"5+	c #DDEEF4",
"6+	c #E1EDFB",
"7+	c #E4EDF6",
"8+	c #DEEFF5",
"9+	c #E8EDF0",
"0+	c #E2EEFD",
"a+	c #DFF0F6",
"b+	c #E3EFFE",
"c+	c #E0F1F8",
"d+	c #E7EFF8",
"e+	c #EAF0F2",
"f+	c #E4F1FF",
"g+	c #E5F2F3",
"h+	c #E9F1FA",
"i+	c #E3F3FA",
"j+	c #ECF1F4",
"k+	c #E6F3F4",
"l+	c #E6F2FF",
"m+	c #E7F3FF",
"n+	c #EAF3FB",
"o+	c #EEF3F6",
"p+	c #EBF4FC",
"q+	c #ECF5FD",
"r+	c #F0F5F8",
"s+	c #EDF6FF",
"t+	c #EEF7FF",
"u+	c #F2F7F9",
"v+	c #F0F8FF",
"w+	c #F3F8FB",
"x+	c #F4F9FC",
"y+	c #F5FAFD",
"z+	c #F6FBFE",
"A+	c #F7FDFF",
"B+	c #FBFDFA",
"C+	c #FEFCFF",
"D+	c #F8FEFF",
"E+	c #F9FFFF",
"F+	c #FCFFFB",
"G+	c #FEFFFC",
"k+k+k+k+k+k+k+k+k+k+k+k+g+k+k+g+g+g+g+g+g+g+g+g+g+g+g+a+a+a+a+a+a+a+a+a+a+a+8+8+",
"i+-+-+-+-+-+-+-+-+-+-+-+&+-+&+&+&+&+&+&+&+&+&+&+&+&+&+*+*+*+*+-+-+*+*+*+*+*+*+8+",
"h+&+C+C+C+C+C+C+C+C+C+G+C+G+G+G+G+G+G+G+G+B+B+B+B+B+D+A+A+z+C+C+x+y+x+x+w+t+&+8+",
"k+-+G+G+G+D+D+D+G+D+D+D+G+C+D+A+A+A+A+z+A+A+A+z+A+y+C+C+z+y+t+t+y+x+t+t+t+y+=+8+",
"k+-+G+C+G+G+D+D+D+D+G+B+z+B+C+C+C+A+B+C+C+z+A+A+z+x+x+y+z+y+z+E+x+z+z+y+w+h+*+8+",
"k+*+G+G+G+D+G+G+G+G+B+C+_+!.a )+z+C+A+z+y+C+C+C+y+y+y+y+y+y+x+t+t+t+x+t+t+y+#+8+",
"i+-+G+G+G+D+D+G+C+C+e+!.+ . o B+u+C+A+z+x+x+x+C+x+y+y+x+C+w+x+y+C+t+x+t+w+C+&+5+",
"k+*+G+G+G+G+G+C+u+;+d : @ p /+j+C+z+C+z+z+y+C+w+y+y+x+t+t+x+t+t+q+w+t+C+t+q+=+5+",
"i+-+G+C+G+D+y+B+h.5 } > | W.9+u+z+y+C+A+z+w+y+y+y+C+C+u+t+y+x+t+t+t+q+q+q+q+#+5+",
"k+*+G+D+G+B+e+j.0 ^ 3 | H.]+e+x+A+z+x+z+y+y+y+y+w+q+t+t+y+t+t+x+w+w+q+q+t+q+&+3+",
"i+-+G+D+C+B+t.5 P 2 m 8.'+B+C+C+B+y+C+x+y+y+y+y+y+x+C+t+C+w+t+t+q+t+C+p+t+q+#+3+",
"k+*+D+G+u+;+b n.# ,.p V.]+j+w+u+x+y+w+y+t+x+x+x+t+x+u+u+q+t+t+t+h+u+q+h+q+q+&+3+",
"i+*+D+B+j+B a.E r I (.9+C+C+x+y+y+y+y+A+t+x+t+z+t+t+t+t+t+u+w+x+t+q+t+h+h+w+#+|+",
"k+*+G+C+Z.5 F.( =.W H._+C+x+z+z+z+y+x+C+C+t+x+q+q+q+h+t+x+t+q+q+t+t+t+t+t+i+*+|+",
"i+&+C+C+O g.y.- 2.m B.d+w+y+z+y+y+x+t+t+z+x+C+9+x x  +h+h+q+h+t+q+h+t+t+t+i+#+|+",
"g+*+B+A+g y.e.- -.'.N 4+w+y+x+x+y+x+y+w+t+t+d+X.W ].m <.d+h+u+t+t+t+p+q+q+m+=+}+",
"a+&+C+C+9 E.G.% 2.3.q O.j+t+w+t+t+t+t+w+w+i+d+B.I 6.2.I T [+n+q+q+q+q+m+t+l+=+|+",
"j+=+z+D+9 x.x.% ).-.'.q 0.9+h+r+r+o+j+n+i+j+4+c.W -.-.6.=.r X.d+l+q+p+q+p+p+&+}+",
"a+=+A+C+d x.w._ i 6.-.3.I q i F F U T T F F G | {.>.-.>.>.[.7 f.6+l+p+l+l+i+=+}+",
"e+&+C+w+9 n.E.p.* ).>.2.-.2.3.1.].}.]._.}._.}.1.-.-.6.-.-.6.3.m $.2+f+p+p+f+.+|+",
"g+#+z+v+C 9.G.L.P ! }.3.3.3.3.2.2.>.2.2.2.2.>.2.2.>.1.).2.3.3.b.W M |+b+n+d+.+|+",
"a+*+A+D+r.n F.E.M.y ! %.3.2.2.3.3.3.2.2.2.3.3.3.3.3.3.3.3.3.1.b.b.` t ^+l+l+=+}+",
"a+&+y+v+,+f 9.x.x.K.~.$ < K ].'.]._._._.1.}.]._.]._._._.].}.1.{.].{.%.$.n+b+.+(+",
"a+-+t+C+]+l.0 G.x.w.G.G.^.j ^ ^ ( ^ , ~ ~ , ) ~ ) , ( ) ( ( ~ ( ~ ( ~ ~ l+i+=+[+",
"a+*+t+C+e+@+Z n G.k.w.w.w.x.E.G.I.G.G.G.G.M.I.M.M.M.P.P.P.M.P.P.P.T.4.R b+0+.+(+",
"d+%+w+t+n+d+V.V e G.k.w.w.w.x.w.x.x.u.E.G.E.e.x.G.G.E.I.E.G.L.L.M./.1 J.i+i+=+[+",
"g+&+x+t+r+n+<+R.Z [ Y E.k.w.k.w.w.x.k.k.w.E.E.u.u.E.w.E.E.G.E.M.+.8 v.++0+6+.+{+",
"5+-+t+C+t+u+d+^+`.q.z [ H #.e.x.E.E.K.F.E.E.G.E.w.w.x.x.E.E.M.J l v.++{+b+b+.+}+",
"8+*+q+x+t+C+h+h+4+,+Q.d.@.u h [ [ [ 5 9 5 [ [ 0 g.w.w.w.w.n.0 z N.++<+}+f+a+.+{+",
"8+&+t+t+h+q+x+u+n+d+]+,+Y.Y.J.q.v.q.d.d.d.d.|.D S k.k.k.7.[ @.N.,+(+}+l+f+0+=+}+",
"8+*+C+C+q+t+t+q+u+q+h+f+2+[+|+!+~+!+!+>+>+++Y.;.H w.E.Y 1 |.J.++1+b+f+}+l+1+.+{+",
"5+&+n+p+w+q+q+t+i+q+i+p+q+d+b+i+a+b+7+d+2+8+,+5.J x.s l v.U.{+}+a+f+f+l+..f+=+}+",
"3+#+t+q+u+h+t+t+t+t+q+p+q+p+q+q+n+h+i+l+l+f+:+Q.9 [ X C.++{+0+b+}+l+f+..  6+.+{+",
"5+&+t+m+C+h+q+q+q+p+m+p+p+n+m+l+n+l+l+i+h+i+a+!+Q.J.S.>+|+2+b+f+l+a+..    }+=+}+",
"5+&+t+p+t+m+t+m+p+q+l+l+l+q+p+l+p+h+l+l+b+f+}+6+{+{+:+1+b+a+b+b+f+..      0+.+{+",
"3+=+t+i+q+t+l+q+l+m+i+q+p+l+l+i+l+l+n+l+d+l+l+a+7+7+}+b+b+f+f+a+..        f+=+&+",
"}+#+t+t+q+t+q+t+q+q+l+l+i+p+l+h+f+f+i+l+f+l+f+f+f+n+i+f+b+}+l+..          6+=+(+",
"5+*+q+p+q+p+m+p+m+p+q+p+m+l+n+l+h+f+b+f+i+i+f+f+i+f+b+f+f+l+f+d+d+d+d+h+0+b+&+}+",
"}+&+&+#+&+&+#+#+#+&+#+#+=+#+=+#+#+=+=+.+&+#+=+&+#+=+=+.+#+&+#+*+&+&+#+=+#+.+.+{+",
"8+5+5+3+|+3+|+3+}+[+|+3+{+}+{+}+|+{+{+|+*+|+(+*+(+{+{+[+{+}+{+{+*+}+{+{+{+}+*+}+"};
#endif
