/* XPM */
// This file is part of Synecdoche.
// http://synecdoche.googlecode.com/
// Copyright (C) 2008 David Barnard
//
// Synecdoche is free software: you can redistribute it and/or modify
// it under the terms of the GNU Lesser General Public License as published
// by the Free Software Foundation, either version 3 of the License, or
// (at your option) any later version.
//
// Synecdoche is distributed in the hope that it will be useful,
// but WITHOUT ANY WARRANTY; without even the implied warranty of
// MERCHANTABILITY or FITNESS FOR A PARTICULAR PURPOSE.
// See the GNU Lesser General Public License for more details.
//
// You should have received a copy of the GNU Lesser General Public
// License with Synecdoche.  If not, see <http://www.gnu.org/licenses/>.

#ifndef SYNECDOCHE32X32X8_XPM
#define SYNECDOCHE32X32X8_XPM
static const char * synecdoche32x32x8_xpm[] = {
"32 32 194 2",
"  	c None",
". 	c #0BA310",
"+ 	c #EE0AEF",
"@ 	c #FF00FF",
"# 	c #10AA16",
"$ 	c #6C7E0E",
"% 	c #568C12",
"& 	c #847C12",
"* 	c #877B12",
"= 	c #8B7912",
"- 	c #8F7712",
"; 	c #98730F",
"> 	c #937612",
", 	c #768515",
"' 	c #A57010",
") 	c #718918",
"! 	c #659018",
"~ 	c #A8700E",
"{ 	c #46A01B",
"] 	c #5A971A",
"^ 	c #1CB523",
"/ 	c #A37512",
"( 	c #A57412",
"_ 	c #A37513",
": 	c #A47513",
"< 	c #A47613",
"[ 	c #A47614",
"} 	c #A47615",
"| 	c #A47713",
"1 	c #A77714",
"2 	c #C16C0C",
"3 	c #A97815",
"4 	c #B37410",
"5 	c #AB7814",
"6 	c #C76C08",
"7 	c #1DBE24",
"8 	c #AE7812",
"9 	c #BA7411",
"0 	c #49AB23",
"a 	c #3AB624",
"b 	c #B77C13",
"c 	c #20C528",
"d 	c #1EC726",
"e 	c #3DC12E",
"f 	c #C1861A",
"g 	c #33D03B",
"h 	c #C88C19",
"i 	c #D6851A",
"j 	c #C98E22",
"k 	c #39D241",
"l 	c #14EB22",
"m 	c #15EB23",
"n 	c #16EB24",
"o 	c #CD901C",
"p 	c #17EB25",
"q 	c #18EB25",
"r 	c #2BDF34",
"s 	c #19EB26",
"t 	c #1AEB27",
"u 	c #1AEC28",
"v 	c #1BEC29",
"w 	c #1CEC2A",
"x 	c #26E631",
"y 	c #1FEC2C",
"z 	c #2EE239",
"A 	c #1FEC2D",
"B 	c #30E13A",
"C 	c #33DF3D",
"D 	c #20EC2D",
"E 	c #20EC2E",
"F 	c #21EC2E",
"G 	c #3EDA41",
"H 	c #DD9118",
"I 	c #22EC30",
"J 	c #23EC31",
"K 	c #30E43B",
"L 	c #24EC31",
"M 	c #31E43C",
"N 	c #30E53C",
"O 	c #2CE838",
"P 	c #26EC33",
"Q 	c #D2972A",
"R 	c #26ED33",
"S 	c #31E63C",
"T 	c #32E63D",
"U 	c #32E63E",
"V 	c #28ED35",
"W 	c #33E63E",
"X 	c #30E83C",
"Y 	c #32E73D",
"Z 	c #29ED36",
"` 	c #34E63F",
" .	c #31E83D",
"..	c #2BEC38",
"+.	c #2AED37",
"@.	c #35E640",
"#.	c #2BED37",
"$.	c #2BED38",
"%.	c #2CED38",
"&.	c #2CED39",
"*.	c #36E740",
"=.	c #2DED39",
"-.	c #2DED3A",
";.	c #2DEE3A",
">.	c #2FED3B",
",.	c #3CE746",
"'.	c #33ED3F",
").	c #3DEC48",
"!.	c #3BEE48",
"~.	c #42EF4D",
"{.	c #EBA61F",
"].	c #E7AC30",
"^.	c #EBAC2E",
"/.	c #EBAC39",
"(.	c #F3B422",
"_.	c #EDB243",
":.	c #F4B729",
"<.	c #F1B63A",
"[.	c #F9BB1A",
"}.	c #F4B933",
"|.	c #F9BC21",
"1.	c #FFBF03",
"2.	c #FFC003",
"3.	c #FFC004",
"4.	c #FFC005",
"5.	c #FFC007",
"6.	c #FFC107",
"7.	c #FFC108",
"8.	c #FFC109",
"9.	c #F8BE2D",
"0.	c #FFC10A",
"a.	c #FFC10B",
"b.	c #F7BE34",
"c.	c #FFC20B",
"d.	c #FFC20C",
"e.	c #FFC20D",
"f.	c #FFC20E",
"g.	c #FFC20F",
"h.	c #FBC120",
"i.	c #FFC310",
"j.	c #FFC311",
"k.	c #FFC312",
"l.	c #FFC313",
"m.	c #FFC413",
"n.	c #FFC414",
"o.	c #FFC415",
"p.	c #FFC416",
"q.	c #FFC417",
"r.	c #FDC422",
"s.	c #FFC518",
"t.	c #FFC519",
"u.	c #FEC51C",
"v.	c #FFC51A",
"w.	c #FFC51B",
"x.	c #FBC42C",
"y.	c #FDC525",
"z.	c #FFC61C",
"A.	c #FFC61D",
"B.	c #FFC61E",
"C.	c #FFC61F",
"D.	c #FFC71F",
"E.	c #FFC720",
"F.	c #FFC721",
"G.	c #FEC724",
"H.	c #FFC723",
"I.	c #FDC72E",
"J.	c #FFC824",
"K.	c #FFC825",
"L.	c #FFC826",
"M.	c #FEC82A",
"N.	c #FFC828",
"O.	c #FFC928",
"P.	c #FFC929",
"Q.	c #FFC92B",
"R.	c #FEC931",
"S.	c #FFCA2D",
"T.	c #FFCA2E",
"U.	c #FFCA2F",
"V.	c #FFCB30",
"W.	c #FFCB32",
"X.	c #FFCB33",
"Y.	c #FFCB34",
"Z.	c #FFCC32",
"`.	c #FFCC35",
" +	c #FFCC37",
".+	c #FFCD39",
"++	c #FFCD3A",
"@+	c #FFCD3C",
"#+	c #FFCE3E",
"$+	c #FFCE3F",
"%+	c #FFCF41",
"&+	c #FFCF43",
"*+	c #FFCF44",
"=+	c #FFD24E",
"                                                                ",
"                                                                ",
"                6 6                                             ",
"            6 2 $ .                                             ",
"          6 9 % .                                               ",
"        6 4 { .                                                 ",
"      6 h ] .                                                   ",
"    6 9.= a .                                                   ",
"  6 :.o 0 .                                                     ",
"  6 K.( r .                                                     ",
"6 (.[.& J .                             . .                     ",
"6 u.h.* v #                             . *..                   ",
"6 m.K.> w #..                           . s %.. .               ",
"6 i.t.; x m c .                         . p l A 7 .             ",
"6 n.c.b a l n d . . . . . . . . . . . . . l l l t @..           ",
"6 I.n.b.- O q l p R >.X T M M N S Y  ...u l l l l n '.. .       ",
"6 <.K.T.Q ) ).>.=.Z P I F E D D A y y A F L R V #.=.-.~.^ .     ",
"  6 P.C.Z.j , G ;.V V V Z Z Z +.+.+.+.$.$.$.&.&.&.=.=.=.!.k .   ",
"  6 }.t.t.N.].~ ! e C B z K S S T T T U U U U W W W ` ` ` ,.g . ",
"    6 M.j.l.t.R.^.f 8 5 3 1 | / / _ _ _ : : < < [ [ [ [ [ [ } ' ",
"      6 G.d.e.g.j.w.L.N.P.Q.S.U.V.W.Y.`. +.+++@+#+$+%+&+*+=+_.6 ",
"        6 y.8.6.8.a.e.f.i.k.m.o.q.s.v.z.A.C.F.H.J.L.O.P. +/.6   ",
"          6 6 u.7.2.4.5.7.0.d.e.g.j.l.n.p.s.t.w.A.B.E.X.i 6     ",
"              6 6 {.|.A.z.B.D.E.F.D.B.B.j.i.k.m.o.q.V.6 6       ",
"                  6 6 6 6 6 6 6 6 6 6 6 6 8.0.d.i.x.6           ",
"                                        6 4.1.e.H 6             ",
"                                        6 3.m.6 6               ",
"                                        6 r.6                   ",
"                                        6 6                     ",
"                                                                ",
"                                                                ",
"                                                                "};
#endif
