/* XPM */
// This file is part of Synecdoche.
// http://synecdoche.googlecode.com/
// Copyright (C) 2008 David Barnard
//
// Synecdoche is free software: you can redistribute it and/or modify
// it under the terms of the GNU Lesser General Public License as published
// by the Free Software Foundation, either version 3 of the License, or
// (at your option) any later version.
//
// Synecdoche is distributed in the hope that it will be useful,
// but WITHOUT ANY WARRANTY; without even the implied warranty of
// MERCHANTABILITY or FITNESS FOR A PARTICULAR PURPOSE.
// See the GNU Lesser General Public License for more details.
//
// You should have received a copy of the GNU Lesser General Public
// License with Synecdoche.  If not, see <http://www.gnu.org/licenses/>.

#ifndef DISCONNECTED_XPM
#define DISCONNECTED_XPM
static const char * disconnected_xpm[] = {
"16 16 62 1",
" 	c None",
".	c #CC0000",
"+	c #FF0000",
"@	c #AB7D1C",
"#	c #FF4D4D",
"$	c #A28720",
"%	c #C0802A",
"&	c #55B72B",
"*	c #47BA47",
"=	c #42C22D",
"-	c #5DB044",
";	c #43C22D",
">	c #43C22E",
",	c #45C42B",
"'	c #8F9F29",
")	c #68AD4C",
"!	c #4AC232",
"~	c #A59926",
"{	c #D08910",
"]	c #A89A28",
"^	c #CF8923",
"/	c #37D240",
"(	c #14EB22",
"_	c #B19A2C",
":	c #2ADE36",
"<	c #22E52F",
"[	c #BB9C24",
"}	c #D99215",
"|	c #24EB31",
"1	c #24EC32",
"2	c #25EC32",
"3	c #25EC33",
"4	c #26EC33",
"5	c #32E53A",
"6	c #27ED33",
"7	c #27ED34",
"8	c #28ED35",
"9	c #29ED36",
"0	c #33EA3F",
"a	c #DC9C2A",
"b	c #DD9D2D",
"c	c #D2A61F",
"d	c #DF9E31",
"e	c #EFAC18",
"f	c #ECB328",
"g	c #ECB32A",
"h	c #ECB42C",
"i	c #ECB52E",
"j	c #ECB632",
"k	c #ECB634",
"l	c #ECB63B",
"m	c #F7BA21",
"n	c #FFC10B",
"o	c #FFC20D",
"p	c #FFC310",
"q	c #FFC413",
"r	c #FFC417",
"s	c #FEC41B",
"t	c #FFC51A",
"u	c #FFC61D",
"v	c #FDC72E",
"w	c #FFC92B",
"                ",
"    %=          ",
"  }@)           ",
" }$*            ",
" ^=             ",
"}]=       ==    ",
"b~|=      =/=   ",
"ac,<=======(:=  ",
"dw_54189932670= ",
"###['&###==;>>!-",
" +++s#+.fghijkl{",
"  ++++.opqrtuv{ ",
"   +++{{{{{nm{  ",
"  #++++   {e{   ",
" #+. +++  {{    ",
"#..   ...       "};
#endif
