<?xml version="1.0" encoding="UTF-8" standalone="no"?>
<!-- Created with Inkscape (http://www.inkscape.org/) -->
<svg
   xmlns:dc="http://purl.org/dc/elements/1.1/"
   xmlns:cc="http://creativecommons.org/ns#"
   xmlns:rdf="http://www.w3.org/1999/02/22-rdf-syntax-ns#"
   xmlns:svg="http://www.w3.org/2000/svg"
   xmlns="http://www.w3.org/2000/svg"
   xmlns:xlink="http://www.w3.org/1999/xlink"
   xmlns:sodipodi="http://sodipodi.sourceforge.net/DTD/sodipodi-0.dtd"
   xmlns:inkscape="http://www.inkscape.org/namespaces/inkscape"
   width="512"
   height="512"
   id="svg2"
   sodipodi:version="0.32"
   inkscape:version="0.46"
   sodipodi:docbase="C:\Documents and Settings\david\Desktop"
   sodipodi:docname="synecdoche-icon.svg"
   inkscape:output_extension="org.inkscape.output.svg.inkscape"
   sodipodi:modified="true"
   inkscape:export-filename="C:\Documents and Settings\david\Desktop\Synecdoche graphics\arrow-shadow-64.png"
   inkscape:export-xdpi="11.25"
   inkscape:export-ydpi="11.25"
   version="1.0">
  <defs
     id="defs4">
    <linearGradient
       inkscape:collect="always"
       id="linearGradient3272">
      <stop
         style="stop-color:#ffffff;stop-opacity:1;"
         offset="0"
         id="stop3274" />
      <stop
         style="stop-color:#ffffff;stop-opacity:0;"
         offset="1"
         id="stop3276" />
    </linearGradient>
    <inkscape:perspective
       sodipodi:type="inkscape:persp3d"
       inkscape:vp_x="0 : 526.18109 : 1"
       inkscape:vp_y="0 : 1000 : 0"
       inkscape:vp_z="744.09448 : 526.18109 : 1"
       inkscape:persp3d-origin="372.04724 : 350.78739 : 1"
       id="perspective28" />
    <linearGradient
       id="linearGradient4244">
      <stop
         style="stop-color:#ffbf00;stop-opacity:1;"
         offset="0"
         id="stop4246" />
      <stop
         style="stop-color:#ffffff;stop-opacity:1;"
         offset="1"
         id="stop4248" />
    </linearGradient>
    <linearGradient
       inkscape:collect="always"
       xlink:href="#linearGradient4244"
       id="linearGradient4256"
       gradientUnits="userSpaceOnUse"
       x1="188.39345"
       y1="837.19971"
       x2="228.79956"
       y2="680.62604"
       gradientTransform="matrix(1,0,0,-1,0,1052.3622)" />
    <linearGradient
       inkscape:collect="always"
       xlink:href="#linearGradient4244"
       id="linearGradient4259"
       gradientUnits="userSpaceOnUse"
       gradientTransform="matrix(1,0,0,-1,20,692.3622)"
       x1="210.11172"
       y1="218.69804"
       x2="279.30719"
       y2="369.21075" />
    <linearGradient
       inkscape:collect="always"
       xlink:href="#linearGradient4244"
       id="linearGradient3205"
       x1="546.49805"
       y1="776.71289"
       x2="546.94531"
       y2="738.70306"
       gradientUnits="userSpaceOnUse" />
    <linearGradient
       inkscape:collect="always"
       xlink:href="#linearGradient4244"
       id="linearGradient2411"
       gradientUnits="userSpaceOnUse"
       x1="546.49805"
       y1="776.71289"
       x2="546.94531"
       y2="738.70306" />
    <linearGradient
       inkscape:collect="always"
       xlink:href="#linearGradient4244"
       id="linearGradient2431"
       gradientUnits="userSpaceOnUse"
       x1="546.49805"
       y1="776.71289"
       x2="546.94531"
       y2="738.70306" />
    <linearGradient
       inkscape:collect="always"
       xlink:href="#linearGradient4244"
       id="linearGradient2433"
       gradientUnits="userSpaceOnUse"
       x1="546.49805"
       y1="776.71289"
       x2="546.94531"
       y2="738.70306" />
    <linearGradient
       inkscape:collect="always"
       xlink:href="#linearGradient4244"
       id="linearGradient2427"
       gradientUnits="userSpaceOnUse"
       gradientTransform="matrix(1,0,0,-1,-75.327641,602.51512)"
       x1="210.11172"
       y1="218.69804"
       x2="279.30719"
       y2="369.21075" />
    <linearGradient
       inkscape:collect="always"
       xlink:href="#linearGradient4244"
       id="linearGradient3263"
       gradientUnits="userSpaceOnUse"
       x1="1336.9369"
       y1="697.12244"
       x2="1298.046"
       y2="430.94717" />
    <linearGradient
       inkscape:collect="always"
       xlink:href="#linearGradient3272"
       id="linearGradient3278"
       x1="1336.2289"
       y1="435.21442"
       x2="1328.3506"
       y2="666.81781"
       gradientUnits="userSpaceOnUse" />
    <linearGradient
       inkscape:collect="always"
       xlink:href="#linearGradient4244"
       id="linearGradient3280"
       gradientUnits="userSpaceOnUse"
       x1="1337.6511"
       y1="704.97955"
       x2="1398.7603"
       y2="433.09003" />
    <filter
       inkscape:collect="always"
       id="filter3332"
       x="-0.089666381"
       width="1.1793329"
       y="-0.10329638"
       height="1.2065928">
      <feGaussianBlur
         inkscape:collect="always"
         stdDeviation="9.8273746"
         id="feGaussianBlur3334" />
    </filter>
    <linearGradient
       inkscape:collect="always"
       xlink:href="#linearGradient4244"
       id="linearGradient2459"
       gradientUnits="userSpaceOnUse"
       x1="1337.6511"
       y1="704.97955"
       x2="1398.7603"
       y2="433.09003" />
    <linearGradient
       inkscape:collect="always"
       xlink:href="#linearGradient3272"
       id="linearGradient2461"
       gradientUnits="userSpaceOnUse"
       x1="1336.2289"
       y1="435.21442"
       x2="1328.3506"
       y2="666.81781" />
    <linearGradient
       inkscape:collect="always"
       xlink:href="#linearGradient3272"
       id="linearGradient2467"
       gradientUnits="userSpaceOnUse"
       x1="1336.2289"
       y1="435.21442"
       x2="1328.3506"
       y2="666.81781"
       gradientTransform="translate(-4.0406106,73.741131)" />
    <linearGradient
       inkscape:collect="always"
       xlink:href="#linearGradient4244"
       id="linearGradient2472"
       gradientUnits="userSpaceOnUse"
       x1="1337.6511"
       y1="704.97955"
       x2="1398.7603"
       y2="433.09003"
       gradientTransform="translate(-4.0406106,73.741131)" />
    <linearGradient
       inkscape:collect="always"
       xlink:href="#linearGradient4244"
       id="linearGradient3199"
       gradientUnits="userSpaceOnUse"
       x1="1337.6511"
       y1="704.97955"
       x2="1398.7603"
       y2="433.09003" />
    <linearGradient
       inkscape:collect="always"
       xlink:href="#linearGradient3272"
       id="linearGradient3201"
       gradientUnits="userSpaceOnUse"
       x1="1336.2289"
       y1="435.21442"
       x2="1328.3506"
       y2="666.81781" />
  </defs>
  <sodipodi:namedview
     id="base"
     pagecolor="#ffffff"
     bordercolor="#666666"
     borderopacity="1.0"
     gridtolerance="10000"
     guidetolerance="10"
     objecttolerance="10"
     inkscape:pageopacity="0.0"
     inkscape:pageshadow="2"
     inkscape:zoom="1"
     inkscape:cx="212.39329"
     inkscape:cy="250.96673"
     inkscape:document-units="px"
     inkscape:current-layer="layer2"
     inkscape:window-width="1280"
     inkscape:window-height="934"
     inkscape:window-x="-4"
     inkscape:window-y="-4"
     showgrid="true"
     showborder="true">
    <inkscape:grid
       type="xygrid"
       id="grid2450"
       visible="false"
       enabled="true"
       spacingx="16px"
       spacingy="16px"
       empspacing="4"
       dotted="false" />
  </sodipodi:namedview>
  <metadata
     id="metadata7">
    <rdf:RDF>
      <cc:Work
         rdf:about="">
        <dc:format>image/svg+xml</dc:format>
        <dc:type
           rdf:resource="http://purl.org/dc/dcmitype/StillImage" />
      </cc:Work>
    </rdf:RDF>
  </metadata>
  <g
     inkscape:label="Layer 1"
     inkscape:groupmode="layer"
     id="layer1"
     style="display:inline" />
  <g
     inkscape:groupmode="layer"
     id="layer2"
     inkscape:label="lines"
     style="display:inline">
    <g
       id="g3186"
       transform="matrix(0.9279927,0,0,0.9279927,26.590383,26.998817)">
      <g
         inkscape:export-ydpi="10.572759"
         inkscape:export-xdpi="10.572759"
         inkscape:export-filename="C:\Documents and Settings\david\Desktop\arrow-shadow-32.png"
         id="g2437"
         transform="matrix(1.7963951,0,0,1.7963951,-2144.4213,-880.1018)">
        <path
           style="opacity:0.5;fill:#000000;fill-opacity:1;fill-rule:nonzero;stroke:none;stroke-width:5.5;stroke-linecap:butt;stroke-linejoin:round;marker:none;marker-start:none;marker-mid:none;marker-end:none;stroke-miterlimit:4;stroke-dasharray:none;stroke-dashoffset:0;stroke-opacity:1;visibility:visible;display:inline;overflow:visible;filter:url(#filter3332);enable-background:accumulate"
           d="M 1288.1358,518.9404 C 1286.2966,516.48216 1270.6046,518.30269 1238.2584,544.6188 C 1221.3737,558.3558 1209.9803,573.85455 1203.8501,591.79754 C 1197.7199,609.74054 1198.1365,629.25522 1204.5644,646.79755 C 1211.0217,664.42005 1220.7433,677.61552 1236.4787,690.11844 C 1251.7723,702.2704 1272.0452,708.39518 1290.2787,709.65469 C 1308.5313,710.91552 1346.5687,710.14053 1355.0793,710.30898 C 1363.5753,710.47715 1365.8695,713.04592 1366.0407,720.01184 C 1366.2207,727.33468 1363.5828,741.73406 1368.8978,745.24646 C 1374.0938,748.68016 1377.3839,744.48056 1387.0434,737.74646 C 1396.4641,731.17876 1401.7782,727.08751 1428.324,705.47357 C 1454.7466,683.95995 1462.5268,674.47169 1462.5268,668.75285 C 1462.5268,663.03643 1454.0767,653.29857 1430.2577,634.29755 C 1406.0047,614.95035 1403.0451,613.39857 1391.6862,604.29754 C 1379.8872,594.84384 1372.0039,589.95219 1368.1148,593.58327 C 1363.8293,597.5845 1365.8519,609.36981 1365.972,616.4404 C 1366.0912,623.46272 1365.6147,628.28678 1357.1797,628.7941 C 1348.0329,629.34424 1321.9332,629.29754 1309.5644,629.29754 C 1297.1956,629.29754 1282.0174,629.72475 1268.5902,623.95834 C 1255.2528,618.23052 1245.7727,605.21728 1244.8169,591.59884 C 1243.8601,577.96509 1246.7918,568.59114 1254.8782,556.64961 C 1270.1386,534.11387 1290.2997,521.83258 1288.1358,518.9404 z"
           id="path2439"
           sodipodi:nodetypes="cszzzzzzzzzzzzzzzzzzss" />
        <path
           style="opacity:1;fill:#14eb22;fill-opacity:1;fill-rule:nonzero;stroke:none;stroke-width:5.5;stroke-linecap:butt;stroke-linejoin:round;marker:none;marker-start:none;marker-mid:none;marker-end:none;stroke-miterlimit:4;stroke-dasharray:none;stroke-dashoffset:0;stroke-opacity:1;visibility:visible;display:inline;overflow:visible;enable-background:accumulate"
           d="M 1288.3772,511.59047 C 1288.2107,511.69431 1288.0513,511.78339 1287.8772,511.90297 C 1273.2901,520.36172 1263.121,525.94412 1245.5647,543.34047 C 1240.7261,548.13494 1236.5402,553.14399 1233.1897,559.24672 C 1229.6756,565.64752 1225.5872,573.29537 1223.7209,586.65297 C 1221.8373,600.13443 1225.1107,628.38178 1247.9709,645.99672 C 1271.1468,663.85485 1291.1436,661.65297 1319.1897,661.65297 C 1365.7402,661.17802 1417.3364,661.4225 1462.6272,661.65297 C 1462.711,661.6305 1462.7933,661.61231 1462.8772,661.59047 C 1462.8776,661.55984 1462.8772,661.52713 1462.8772,661.49672 C 1462.8772,655.78033 1454.4149,646.02899 1430.5959,627.02797 C 1406.343,607.68076 1403.3923,606.129 1392.0334,597.02797 C 1380.2344,587.57425 1372.36,582.67814 1368.4709,586.30922 C 1364.1854,590.31045 1366.1946,602.11363 1366.3147,609.18422 C 1366.434,616.20655 1365.9684,621.02065 1357.5334,621.52797 C 1348.3866,622.07813 1322.2772,622.02797 1309.9084,622.02797 C 1297.5397,622.02795 1282.3669,622.45063 1268.9397,616.68422 C 1255.6023,610.95641 1246.1142,597.95891 1245.1584,584.34047 C 1244.2016,570.70673 1247.1345,561.31325 1255.2209,549.37172 C 1270.4813,526.83598 1290.6348,514.5764 1288.4709,511.68422 C 1288.4463,511.6513 1288.4068,511.62181 1288.3772,511.59047 z"
           id="path2441" />
        <path
           style="opacity:1;fill:#ffbf00;fill-opacity:1;fill-rule:nonzero;stroke:none;stroke-width:5.5;stroke-linecap:butt;stroke-linejoin:round;marker:none;marker-start:none;marker-mid:none;marker-end:none;stroke-miterlimit:4;stroke-dasharray:none;stroke-dashoffset:0;stroke-opacity:1;visibility:visible;display:inline;overflow:visible;enable-background:accumulate"
           d="M 1285.9709,510.87172 C 1280.1758,510.75558 1264.8772,515.95863 1238.5959,537.34047 C 1221.7113,551.07748 1210.3199,566.58498 1204.1897,584.52797 C 1198.0595,602.47095 1198.4805,621.98564 1204.9084,639.52797 C 1211.3657,657.15046 1221.0793,670.33755 1236.8147,682.84047 C 1252.1083,694.99245 1272.3937,701.14346 1290.6272,702.40297 C 1308.8798,703.66381 1346.8978,702.85952 1355.4084,703.02797 C 1363.9045,703.19614 1366.206,705.7808 1366.3772,712.74672 C 1366.5572,720.06954 1363.9372,734.45306 1369.2522,737.96547 C 1374.4481,741.39921 1377.7177,737.19959 1387.3772,730.46547 C 1396.7979,723.89786 1402.1126,719.82941 1428.6585,698.21547 C 1454.9405,676.81624 1462.7946,667.31901 1462.8772,661.59047 C 1462.7933,661.61231 1462.711,661.6305 1462.6272,661.65297 C 1417.3364,661.4225 1365.7402,661.17802 1319.1897,661.65297 C 1291.1436,661.65297 1271.1468,663.85485 1247.9709,645.99672 C 1225.1107,628.38178 1221.8373,600.13443 1223.7209,586.65297 C 1225.5872,573.29537 1229.6756,565.64752 1233.1897,559.24672 C 1236.5402,553.14399 1240.7261,548.13494 1245.5647,543.34047 C 1263.121,525.94412 1273.2901,520.36172 1287.8772,511.90297 C 1288.0513,511.78339 1288.2107,511.69431 1288.3772,511.59047 C 1287.9923,511.18306 1287.2128,510.89661 1285.9709,510.87172 z"
           id="path2443" />
        <path
           id="path2445"
           d="M 1210.6562,627.875 C 1207.6325,627.86323 1204.6242,627.9328 1201.6562,628.09375 C 1202.4747,631.9693 1203.5391,635.80006 1204.9062,639.53125 C 1211.3635,657.15376 1221.0771,670.34083 1236.8125,682.84375 C 1252.1061,694.99575 1272.3915,701.14674 1290.625,702.40625 C 1308.8776,703.66711 1346.8956,702.8628 1355.4062,703.03125 C 1363.9023,703.19944 1366.2038,705.78408 1366.375,712.75 C 1366.555,720.07284 1363.935,734.45634 1369.25,737.96875 C 1374.4459,741.40251 1377.7155,737.20287 1387.375,730.46875 C 1396.7957,723.90116 1402.1103,719.83269 1428.6562,698.21875 C 1454.9383,676.81954 1462.7924,667.32229 1462.875,661.59375 C 1462.7911,661.61561 1462.7088,661.63378 1462.625,661.65625 C 1417.3342,661.4258 1365.738,661.1813 1319.1875,661.65625 C 1291.1414,661.65627 1271.1446,663.85813 1247.9688,646 C 1241.531,641.03941 1236.6533,635.23604 1233,629.15625 C 1225.4009,628.40652 1217.9481,627.90339 1210.6562,627.875 z"
           style="opacity:1;fill:url(#linearGradient3199);fill-opacity:1;fill-rule:nonzero;stroke:none;stroke-width:5.5;stroke-linecap:butt;stroke-linejoin:round;marker:none;marker-start:none;marker-mid:none;marker-end:none;stroke-miterlimit:4;stroke-dasharray:none;stroke-dashoffset:0;stroke-opacity:1;visibility:visible;display:inline;overflow:visible;enable-background:accumulate" />
        <path
           id="path2447"
           d="M 1285.9688,510.875 C 1280.1736,510.75885 1264.875,515.96191 1238.5938,537.34375 C 1221.7091,551.08078 1210.3177,566.58826 1204.1875,584.53125 C 1198.0573,602.47425 1198.4783,621.98892 1204.9062,639.53125 C 1211.3635,657.15376 1221.0771,670.34083 1236.8125,682.84375 C 1252.1061,694.99575 1272.3915,701.14674 1290.625,702.40625 C 1308.8776,703.66711 1346.8956,702.8628 1355.4062,703.03125 C 1363.9023,703.19944 1366.2038,705.78408 1366.375,712.75 C 1366.555,720.07284 1363.935,734.45634 1369.25,737.96875 C 1374.4459,741.40251 1377.7155,737.20287 1387.375,730.46875 C 1396.7957,723.90116 1402.1103,719.83269 1428.6562,698.21875 C 1454.9383,676.81954 1462.7924,667.32229 1462.875,661.59375 C 1462.7911,661.61561 1462.7088,661.63378 1462.625,661.65625 C 1417.3342,661.4258 1365.738,661.1813 1319.1875,661.65625 C 1291.1414,661.65627 1271.1446,663.85813 1247.9688,646 C 1225.1085,628.38508 1221.8351,600.13771 1223.7188,586.65625 C 1225.585,573.29867 1229.6734,565.6508 1233.1875,559.25 C 1236.538,553.14729 1240.7239,548.13822 1245.5625,543.34375 C 1263.1188,525.94742 1273.2879,520.365 1287.875,511.90625 C 1288.0491,511.78666 1288.2085,511.69759 1288.375,511.59375 C 1287.9901,511.18633 1287.2106,510.89989 1285.9688,510.875 z M 1219.2188,570.78125 C 1215.868,581.07038 1214.5875,592.05668 1215.75,602.84375 C 1218.5655,636.87517 1248.3566,664.62187 1281.5312,668.78125 C 1337.1305,670.58847 1392.8786,668.79109 1448.5312,669.53125 C 1426.7346,691.5544 1401.6239,709.50841 1377,728.25 C 1374.3811,730.85623 1373.014,729.94313 1373.9062,726.375 C 1374.9712,716.27967 1376.233,701.94547 1365.3438,696.71875 C 1342.3453,692.95221 1318.8009,696.27701 1295.5938,694.78125 C 1262.3093,694.60843 1229.475,674.80899 1215.4375,644.375 C 1204.1318,621.61031 1205.7198,593.51256 1218.6562,571.75 L 1218.7188,571.65625 L 1219.2188,570.78125 z"
           style="opacity:0.2;fill:#ffffff;fill-opacity:1;fill-rule:nonzero;stroke:none;stroke-width:5.5;stroke-linecap:butt;stroke-linejoin:round;marker:none;marker-start:none;marker-mid:none;marker-end:none;stroke-miterlimit:4;stroke-dasharray:none;stroke-dashoffset:0;stroke-opacity:1;visibility:visible;display:inline;overflow:visible;enable-background:accumulate" />
        <path
           id="path2449"
           d="M 1288.375,511.59375 C 1288.2085,511.69758 1288.0491,511.78667 1287.875,511.90625 C 1273.2879,520.36499 1263.1188,525.9474 1245.5625,543.34375 C 1240.7239,548.13824 1236.538,553.14727 1233.1875,559.25 C 1229.6734,565.65082 1225.585,573.29865 1223.7188,586.65625 C 1221.8351,600.13773 1225.1085,628.38506 1247.9688,646 C 1271.1446,663.85815 1291.1414,661.65625 1319.1875,661.65625 C 1365.738,661.18132 1417.3342,661.42578 1462.625,661.65625 C 1462.7088,661.6338 1462.7911,661.61559 1462.875,661.59375 C 1462.8754,661.56314 1462.875,661.53041 1462.875,661.5 C 1462.875,655.78363 1454.4127,646.03227 1430.5938,627.03125 C 1406.3408,607.68406 1403.3901,606.13228 1392.0312,597.03125 C 1380.2322,587.57755 1372.3578,582.68142 1368.4688,586.3125 C 1364.1832,590.31375 1366.1924,602.11691 1366.3125,609.1875 C 1366.4318,616.20985 1365.9662,621.02393 1357.5312,621.53125 C 1348.3844,622.08143 1322.275,622.03125 1309.9062,622.03125 C 1297.5375,622.03125 1282.3647,622.45391 1268.9375,616.6875 C 1255.6001,610.95971 1246.112,597.96219 1245.1562,584.34375 C 1244.1994,570.71003 1247.1323,561.31653 1255.2188,549.375 C 1270.4791,526.83928 1290.6327,514.57968 1288.4688,511.6875 C 1288.4441,511.65457 1288.4046,511.62509 1288.375,511.59375 z M 1238.5,566.03125 C 1232.6479,586.58731 1241.6369,610.96705 1260.625,621.375 C 1284.644,634.39737 1313.0742,628.88268 1339.2188,629.78125 C 1348.9277,629.19491 1360.3327,631.95896 1368.5312,625.625 C 1377.5469,617.57803 1373.616,604.79888 1373.6562,594.375 C 1380.0933,597.70696 1386.8319,603.01367 1392.8438,607.65625 C 1411.3383,623.04012 1431.9226,636.34027 1448.5,653.53125 C 1398.6347,653.30782 1348.769,653.422 1298.9062,653.5625 C 1279.8724,654.6315 1260.3084,648.42301 1247.125,634.4375 C 1229.7176,616.7983 1226.6473,588.03532 1238.3125,566.34375 L 1238.5,566.03125 z"
           style="opacity:0.2;fill:#ffffff;fill-opacity:1;fill-rule:nonzero;stroke:none;stroke-width:5.5;stroke-linecap:butt;stroke-linejoin:round;marker:none;marker-start:none;marker-mid:none;marker-end:none;stroke-miterlimit:4;stroke-dasharray:none;stroke-dashoffset:0;stroke-opacity:1;visibility:visible;display:inline;overflow:visible;enable-background:accumulate" />
        <path
           id="path2451"
           d="M 1233,629.15625 C 1236.6533,635.23604 1241.531,641.0394 1247.9688,646 C 1271.1446,663.85815 1291.1414,661.65625 1319.1875,661.65625 C 1365.738,661.18132 1417.3342,661.42578 1462.625,661.65625 C 1462.7088,661.6338 1462.7911,661.61559 1462.875,661.59375 C 1462.8754,661.56314 1462.875,661.53041 1462.875,661.5 C 1462.875,656.65744 1456.7435,648.89788 1440.4062,635.09375 C 1430.4571,634.19016 1421.9383,633.73286 1415.7188,634.09375 C 1377.18,636.32998 1340.7495,640.64627 1297.1562,636.9375 C 1274.863,635.04085 1253.4005,631.16898 1233,629.15625 z"
           style="opacity:1;fill:url(#linearGradient3201);fill-opacity:1;fill-rule:nonzero;stroke:none;stroke-width:5.5;stroke-linecap:butt;stroke-linejoin:round;marker:none;marker-start:none;marker-mid:none;marker-end:none;stroke-miterlimit:4;stroke-dasharray:none;stroke-dashoffset:0;stroke-opacity:1;visibility:visible;display:inline;overflow:visible;enable-background:accumulate" />
        <path
           sodipodi:nodetypes="ccsssscccsssssssssssssssssssscccssssssssssssssccssssc"
           id="path2453"
           d="M 1288.375,511.59375 C 1288.2085,511.69759 1288.0491,511.78666 1287.875,511.90625 C 1273.2879,520.365 1263.1188,525.94742 1245.5625,543.34375 C 1240.7239,548.13822 1236.538,553.14729 1233.1875,559.25 C 1229.6734,565.6508 1225.585,573.29867 1223.7188,586.65625 C 1221.8351,600.13771 1225.1085,628.38508 1247.9688,646 C 1271.1446,663.85813 1291.1414,661.65627 1319.1875,661.65625 C 1365.738,661.1813 1417.3342,661.4258 1462.625,661.65625 C 1463.5561,661.68667 1464.4294,661.62919 1465.625,661.625 C 1465.6261,661.5445 1465.625,661.50613 1465.625,661.5 C 1465.625,657.28481 1462.9564,653.09345 1457.6875,647.375 C 1452.4186,641.65655 1444.2772,634.41952 1432.3125,624.875 C 1408.0306,605.5047 1405.0466,603.9261 1393.75,594.875 C 1387.7983,590.10634 1382.8132,586.45488 1378.5,584.3125 C 1376.3434,583.24131 1374.3456,582.50797 1372.3125,582.375 C 1370.2794,582.24203 1368.1295,582.87844 1366.5938,584.3125 C 1363.3084,587.37994 1363.0194,592.02538 1363,596.59375 C 1362.9806,601.16212 1363.5064,605.91785 1363.5625,609.21875 C 1363.6209,612.6585 1363.4004,615.23472 1362.7188,616.5 C 1362.0369,617.76528 1361.0752,618.5587 1357.375,618.78125 C 1348.5512,619.31199 1322.2827,619.28125 1309.9062,619.28125 C 1297.4749,619.28125 1282.7237,619.60702 1270.0312,614.15625 C 1257.6454,608.83708 1248.7818,596.62867 1247.9062,584.15625 C 1246.9831,571.00202 1249.6159,562.54901 1257.5,550.90625 C 1264.9449,539.91207 1273.6193,531.35777 1280.25,525.15625 C 1283.5653,522.05549 1286.3514,519.58341 1288.3125,517.53125 C 1289.2931,516.50517 1290.0932,515.60559 1290.6875,514.5625 C 1290.9847,514.04096 1291.2429,513.47553 1291.3438,512.6875 C 1291.4444,511.89947 1291.269,510.80843 1290.6875,510.03125 C 1290.291,509.5014 1290.158,509.45779 1290.375,509.6875 C 1289.433,510.65825 1289.2197,510.88478 1288.375,511.59375 z M 1266.2188,531.4375 C 1261.8281,536.09371 1257.2338,541.49916 1252.9375,547.84375 C 1244.6488,560.08405 1241.416,570.41803 1242.4062,584.53125 C 1243.4425,599.29571 1253.5547,613.08233 1267.8438,619.21875 C 1282.0059,625.3008 1297.6004,624.78125 1309.9062,624.78125 C 1322.2676,624.78125 1348.2176,624.85086 1357.6875,624.28125 C 1362.4223,623.99648 1365.9327,622.11793 1367.5625,619.09375 C 1369.1923,616.06957 1369.1234,612.7076 1369.0625,609.125 C 1368.9985,605.35531 1368.4826,600.69493 1368.5,596.59375 C 1368.5174,592.49257 1369.3434,589.24631 1370.3438,588.3125 C 1370.7523,587.93102 1371.0627,587.81576 1371.9688,587.875 C 1372.8746,587.93424 1374.2895,588.33808 1376.0625,589.21875 C 1379.6085,590.98009 1384.4652,594.50245 1390.3125,599.1875 C 1401.7337,608.33846 1404.651,609.86341 1428.875,629.1875 C 1440.7293,638.644 1448.7394,645.75718 1453.6562,651.09375 C 1455.6526,653.26045 1456.9925,655.08475 1457.9688,656.625 C 1413.796,656.4021 1364.1688,656.19669 1319.125,656.65625 C 1290.8172,656.65625 1272.9484,658.91937 1251.0312,642.03125 C 1230.0354,625.85288 1227.0462,599.09104 1228.6875,587.34375 C 1230.4515,574.7182 1234.0696,568.01837 1237.5625,561.65625 C 1240.623,556.08177 1244.4676,551.49001 1249.0938,546.90625 C 1257.1527,538.92067 1261.9302,534.61571 1266.2188,531.4375 z"
           style="opacity:1;fill:#009a04;fill-opacity:1;fill-rule:nonzero;stroke:none;stroke-width:10;stroke-linecap:butt;stroke-linejoin:round;marker:none;stroke-miterlimit:4;stroke-dasharray:none;stroke-dashoffset:0;stroke-opacity:1;visibility:visible;display:inline;overflow:visible;enable-background:accumulate" />
        <path
           sodipodi:nodetypes="csssssssssssssssssssccsssscssscccsssssscsssssssssssssssssc"
           id="path2455"
           d="M 1286.0312,508.125 C 1282.2627,508.04947 1276.7847,509.51764 1268.7188,513.59375 C 1260.6528,517.66986 1250.1336,524.43189 1236.875,535.21875 C 1219.6741,549.21305 1207.9042,565.15444 1201.5938,583.625 C 1195.2539,602.1817 1195.6713,622.34422 1202.3125,640.46875 C 1208.9238,658.51166 1219.0525,672.2541 1235.0938,685 C 1250.9608,697.60764 1271.7298,703.86399 1290.4375,705.15625 C 1309.0322,706.44074 1347.1683,705.61943 1355.3438,705.78125 C 1359.318,705.85992 1361.2883,706.53903 1362.1562,707.34375 C 1363.0242,708.14847 1363.5466,709.62378 1363.625,712.8125 C 1363.7059,716.10203 1363.0916,721.62338 1363.125,726.8125 C 1363.1417,729.40706 1363.3383,731.92642 1363.9375,734.25 C 1364.5367,736.57358 1365.6143,738.83862 1367.75,740.25 C 1369.3748,741.32374 1371.1678,741.96185 1372.9688,741.9375 C 1374.7697,741.91315 1376.408,741.29101 1377.9688,740.4375 C 1381.0903,738.73049 1384.2083,736.01568 1388.9375,732.71875 C 1398.3972,726.12394 1403.852,721.96448 1430.4062,700.34375 C 1443.5977,689.60306 1452.1918,681.8311 1457.625,675.875 C 1463.0582,669.9189 1465.5659,665.72376 1465.625,661.625 C 1465.6352,660.78552 1465.2614,659.98738 1464.61,659.45774 C 1463.9586,658.92811 1463.2683,658.9259 1462.2812,658.90625 C 1417.0758,658.67633 1365.6146,658.43224 1319.1562,658.90625 C 1290.9662,658.90627 1272.1398,661.13712 1249.6562,643.8125 C 1227.8214,626.98769 1224.6872,599.55893 1226.4375,587.03125 C 1228.2475,574.07631 1232.0913,566.94202 1235.5938,560.5625 C 1238.7847,554.75032 1242.7784,549.95981 1247.5,545.28125 C 1264.8881,528.05159 1274.6373,522.75484 1289.25,514.28125 C 1289.3142,514.24216 1289.3767,514.20046 1289.4375,514.15625 C 1289.4911,514.1194 1289.6077,514.08474 1289.8438,513.9375 C 1290.5515,513.4998 1291.0229,512.76524 1291.1261,511.93958 C 1291.2293,511.11391 1290.9532,510.28592 1290.375,509.6875 C 1289.1591,508.40047 1287.6727,508.1579 1286.0312,508.125 z M 1272.5,517.96875 C 1263.8569,523.45892 1255.2831,529.82311 1243.625,541.375 C 1238.6694,546.28538 1234.2913,551.54425 1230.7812,557.9375 C 1227.2555,564.35958 1222.9225,572.52103 1221,586.28125 C 1218.9831,600.71649 1222.3956,629.78246 1246.2812,648.1875 C 1270.1495,666.57914 1291.2853,664.40627 1319.1875,664.40625 C 1319.1979,664.40631 1319.2084,664.40631 1319.2188,664.40625 C 1364.6269,663.94296 1414.7238,664.18107 1459.2188,664.40625 C 1458.316,666.28407 1456.6548,668.79754 1453.5625,672.1875 C 1448.4775,677.76196 1440.0281,685.43523 1426.9375,696.09375 C 1400.3999,717.7009 1395.1942,721.67837 1385.8125,728.21875 C 1380.8822,731.65594 1377.5396,734.4071 1375.3125,735.625 C 1374.1989,736.23395 1373.4503,736.42972 1372.875,736.4375 C 1372.2997,736.44528 1371.7544,736.29939 1370.7812,735.65625 C 1370.2595,735.31142 1369.66,734.46504 1369.25,732.875 C 1368.84,731.28496 1368.6402,729.13697 1368.625,726.78125 C 1368.5947,722.06981 1369.2241,716.72081 1369.125,712.6875 C 1369.0322,708.9103 1368.3246,705.58363 1365.875,703.3125 C 1363.4254,701.04137 1359.9906,700.37076 1355.4688,700.28125 C 1346.623,700.10617 1308.723,700.89347 1290.8125,699.65625 C 1273.0532,698.42949 1253.2514,692.38385 1238.5312,680.6875 C 1223.1017,668.42756 1213.8032,655.79585 1207.5,638.59375 C 1201.2854,621.63362 1200.8607,602.73554 1206.7812,585.40625 C 1212.7312,567.99083 1223.7753,552.9485 1240.3438,539.46875 C 1253.3665,528.87377 1263.6163,522.34184 1271.2188,518.5 C 1271.7349,518.23915 1272.0072,518.20462 1272.5,517.96875 z"
           style="opacity:1;fill:#be5200;fill-opacity:1;fill-rule:nonzero;stroke:none;stroke-width:5.5;stroke-linecap:butt;stroke-linejoin:round;marker:none;stroke-miterlimit:4;stroke-dasharray:none;stroke-dashoffset:0;stroke-opacity:1;visibility:visible;display:inline;overflow:visible;enable-background:accumulate" />
        <path
           id="path2457"
           d="M 1289.6875,509.09375 C 1289.7695,509.78424 1289.6349,510.64269 1289.125,511.71875 C 1283.7009,515.90968 1276.4309,518.89227 1270.7188,523.15625 C 1256.5553,533.50525 1242.2951,544.77473 1233.5,560.28125 C 1216.9284,586.93132 1222.9312,624.88214 1247.4062,644.59375 C 1262.1198,657.14879 1281.836,661.66311 1300.8438,661 C 1355.0065,660.66476 1409.4468,660.34651 1463.4375,661.09375 C 1464.8104,661.48825 1465.4288,662.17814 1465.5,663.0625 C 1465.5751,662.57634 1465.6181,662.10582 1465.625,661.625 C 1465.6352,660.78552 1465.2764,659.99839 1464.625,659.46875 C 1463.9736,658.9391 1463.2684,658.9259 1462.2812,658.90625 C 1417.0758,658.67633 1365.6147,658.43224 1319.1562,658.90625 C 1290.9662,658.90627 1272.1399,661.13712 1249.6562,643.8125 C 1227.8214,626.98769 1224.6872,599.55893 1226.4375,587.03125 C 1228.2475,574.07631 1232.0912,566.94202 1235.5938,560.5625 C 1238.7847,554.75032 1242.7784,549.95981 1247.5,545.28125 C 1264.8881,528.05159 1274.6373,522.75484 1289.25,514.28125 C 1289.3142,514.24216 1289.3767,514.20046 1289.4375,514.15625 C 1289.4911,514.1194 1289.6076,514.08474 1289.8438,513.9375 C 1290.5515,513.4998 1291.0218,512.76316 1291.125,511.9375 C 1291.2282,511.11183 1290.9532,510.28592 1290.375,509.6875 C 1290.1557,509.45536 1289.9237,509.26283 1289.6875,509.09375 z"
           style="opacity:0.1;fill:#ffffff;fill-opacity:1;fill-rule:nonzero;stroke:none;stroke-width:5.5;stroke-linecap:butt;stroke-linejoin:round;marker:none;stroke-miterlimit:4;stroke-dasharray:none;stroke-dashoffset:0;stroke-opacity:1;visibility:visible;display:inline;overflow:visible;enable-background:accumulate" />
      </g>
    </g>
  </g>
</svg>
